<svg version="1.2" xmlns="http://www.w3.org/2000/svg" viewBox="0 0 30 44" width="30" height="44">
	<title>icon</title>
	<defs>
		<linearGradient id="g1" x1="6.1" y1="30.2" x2="23.8" y2="13.7" gradientUnits="userSpaceOnUse">
			<stop offset="0" stop-color="#6af3f9"/>
			<stop offset="1" stop-color="#2eafeb"/>
		</linearGradient>
	</defs>
	<style>
		.s0 { fill: url(#g1) } 
	</style>
	<path id="icon" class="s0" d="m27.3 23.8c-2.1 2.1-3.6 4.8-4 7.8h-0.1c0 0.6-0.5 1.1-1.4 1.5v6.8c0 1.5-1.2 2.7-2.7 2.7h-1.4c0 0.8-0.6 1.4-1.3 1.4h-2.8c-0.7 0-1.3-0.6-1.3-1.4h-1.4c-1.5 0-2.7-1.2-2.7-2.7v-6.8c-0.9-0.4-1.4-0.9-1.4-1.5h-0.1c-0.4-3-1.9-5.7-4-7.8-1.7-2.4-2.7-5.4-2.7-8.7 0-8.3 6.7-15.1 15-15.1 8.3 0 15 6.8 15 15.1 0 3.3-1 6.3-2.7 8.7zm-15 16.1h5.4c0.8 0 1.4-0.6 1.4-1.4v-0.5l-6.8 1.9q0 0 0 0zm-1.4-1.7l8.2-2.2v-1.4l-8.2 2.2zm0-3.4l6.5-1.8h-5.1c-0.8 0-1.4 0.6-1.4 1.4zm4.1-31.9c-6.7 0-12.1 5.5-12.1 12.3 0 3.5 1.4 6.6 3.8 8.9q-0.4-0.4-0.7-0.7h-0.1c1.3 1.6 2.3 3.5 2.9 5.5q0.4 0.2 0.8 0.4 0.1 0.2 0.3 0.5-0.4 0.2-0.4 0.5c0 0.8 2.5 1.4 5.5 1.4 3 0 5.5-0.6 5.5-1.4q0-0.3-0.4-0.5 0.2-0.3 0.3-0.5 0.4-0.2 0.8-0.4c0.6-2 1.6-3.9 2.9-5.5h-0.1q-0.3 0.3-0.7 0.7c2.4-2.3 3.8-5.4 3.8-8.9 0-6.8-5.4-12.3-12.1-12.3zm6.8 12.2c0-3.8-3-6.8-6.8-6.9v-1.4c4.6 0 8.3 3.7 8.3 8.3z"/>
</svg>