<svg version="1.2" xmlns="http://www.w3.org/2000/svg" viewBox="0 0 45 40" width="45" height="40">
	<title>Cart</title>
	<defs>
		<linearGradient id="g1" x1="9.8" y1="31.8" x2="35.2" y2="8.2" gradientUnits="userSpaceOnUse">
			<stop offset="0" stop-color="#6af3f9"/>
			<stop offset="1" stop-color="#2eafeb"/>
		</linearGradient>
	</defs>
	<style>
		.s0 { fill: url(#g1) } 
	</style>
	<path id="Cart" class="s0" d="m42.2 24.8c0 0-13 0.1-20.9 0.9-3.7 0.4-7.1 1.4-8.2 1.8l0.4 2.8h27.3c0.8 0 1.4 0.7 1.4 1.4 0 0.8-0.6 1.4-1.4 1.4h-27.3c-1.5 0-2.8-1.2-2.8-2.8l-0.3-2-0.4-2.7q-0.1-0.4-0.2-0.8l-2.8-19.3-0.4-2.7h-5.2c-0.8 0-1.4-0.7-1.4-1.4 0-0.8 0.6-1.4 1.4-1.4h5.6q0.2 0 0.4 0.1 0.2-0.1 0.3-0.1c0.8 0 1.4 0.6 1.4 1.4l0.3 1.4q0.2 0 0.4 0h32.4c1.5 0 2.8 1.2 2.8 2.7v16.6c0 1.5-1.3 2.7-2.8 2.7zm0-17.9c0-0.8-0.6-1.4-1.4-1.4h-29.2c-0.8 0-1.4 0.6-1.4 1.4l2.3 16.1c0 0.7 0.7 1.4 1.4 1.4 0 0 2.3-1 6.5-1.5 7-0.8 20.4-0.8 20.4-0.8 0.8 0 1.4-0.6 1.4-1.4zm-25.3 27.6c1.5 0 2.8 1.2 2.8 2.7 0 1.6-1.3 2.8-2.8 2.8-1.6 0-2.8-1.2-2.8-2.8 0-1.5 1.2-2.7 2.8-2.7zm0 4.1c0.8 0 1.4-0.6 1.4-1.4 0-0.7-0.6-1.3-1.4-1.3-0.8 0-1.4 0.6-1.4 1.3 0 0.8 0.6 1.4 1.4 1.4zm19.7-4.1c1.5 0 2.8 1.2 2.8 2.7 0 1.6-1.3 2.8-2.8 2.8-1.6 0-2.9-1.2-2.9-2.8 0-1.5 1.3-2.7 2.9-2.7zm0 4.1c0.7 0 1.4-0.6 1.4-1.4 0-0.7-0.7-1.3-1.4-1.3-0.8 0-1.4 0.6-1.4 1.3 0 0.8 0.6 1.4 1.4 1.4z"/>
</svg>