<svg version="1.2" xmlns="http://www.w3.org/2000/svg" viewBox="0 0 46 33" width="46" height="33">
	<title>Game</title>
	<defs>
		<linearGradient id="g1" x1="12.6" y1="26.2" x2="33.4" y2="6.8" gradientUnits="userSpaceOnUse">
			<stop offset="0" stop-color="#6af3f9"/>
			<stop offset="1" stop-color="#2eafeb"/>
		</linearGradient>
	</defs>
	<style>
		.s0 { fill: url(#g1) } 
	</style>
	<path id="Game" class="s0" d="m41.7 33c-2.5 0-5.6-4.3-5.6-4.7 0-0.1-0.8-1.3-1.8-3.1-1 1.1-2.5 1.8-4.1 1.8-2.2 0-4.1-1.3-5.1-3.1h-4.2c-1 1.8-2.9 3.1-5.1 3.1-1.6 0-3.1-0.7-4.1-1.8-1 1.8-1.8 3-1.8 3.1 0 0.4-3.1 4.7-5.6 4.7-2.5 0-4.3-2.1-4.3-4.7 0-2.4 2.3-21.4 4.6-23.6 0.5-1 1.4-1.7 2.6-1.7q0-0.1 0-0.1c0-1.6 1.2-2.9 2.8-2.9h5.9c1.5 0 2.8 1.3 2.8 2.9q0 0 0 0.1h8.6q0-0.1 0-0.1c0-1.6 1.3-2.9 2.8-2.9h5.9c1.6 0 2.8 1.3 2.8 2.9q0 0 0 0.1c1.2 0 2.1 0.7 2.6 1.7 2.3 2.2 4.6 21.2 4.6 23.6 0 2.6-1.8 4.7-4.3 4.7zm-11.5-9.1c1.6 0 2.9-1.4 2.9-3 0-1.7-1.3-3-2.9-3-1.6 0-2.9 1.3-2.9 3 0 1.6 1.3 3 2.9 3zm-14.4 0c1.6 0 2.9-1.4 2.9-3 0-1.7-1.3-3-2.9-3-1.6 0-2.9 1.3-2.9 3 0 1.6 1.3 3 2.9 3zm27.4 1.9c-0.1-1.7-3.1-19.4-4.4-19.3q-0.1 0-0.2 0.1c-0.3-0.4-0.7-0.6-1.2-0.6h-1.5v-1.5c0-0.8-0.6-1.5-1.4-1.5h-2.9c-0.8 0-1.4 0.7-1.4 1.5v1.5h-14.4v-1.5c0-0.8-0.6-1.5-1.4-1.5h-2.9c-0.8 0-1.4 0.7-1.4 1.5v1.5h-1.5c-0.5 0-0.9 0.2-1.2 0.6q-0.1-0.1-0.2-0.1c-1.3-0.1-4.3 17.6-4.4 19.3-0.1 1.7 0.2 3.8 1.5 3.9 1.3 0.1 3.6-3.4 3.6-3.6 0-0.2 2.7-3.7 3.6-6.7q0 0 0 0c0.6-1.9 2.3-3.3 4.3-3.3 2.5 0 4.6 2.2 4.6 4.8 1.7 0 3.5 0 5.2 0 0-2.6 2.1-4.8 4.6-4.8 2 0 3.7 1.4 4.3 3.3q0 0 0 0c0.9 3 3.6 6.5 3.6 6.7 0 0.2 2.3 3.7 3.6 3.6 1.3-0.1 1.6-2.2 1.5-3.9zm-8-13.8c-1.2 0-2.2-1-2.2-2.3 0-1.3 1-2.3 2.2-2.3 1.2 0 2.2 1 2.2 2.3 0 1.3-1 2.3-2.2 2.3zm0-3.1c-0.4 0-0.7 0.4-0.7 0.8 0 0.4 0.3 0.8 0.7 0.8 0.4 0 0.8-0.4 0.8-0.8 0-0.4-0.4-0.8-0.8-0.8zm-5.7 6.1c-1.2 0-2.2-1.1-2.2-2.3 0-1.3 1-2.3 2.2-2.3 1.2 0 2.2 1 2.2 2.3 0 1.2-1 2.3-2.2 2.3zm0-3.1c-0.4 0-0.8 0.4-0.8 0.8 0 0.4 0.4 0.7 0.8 0.7 0.4 0 0.7-0.3 0.7-0.7 0-0.4-0.3-0.8-0.7-0.8zm-15.1 1.5c0 0.8-0.7 1.5-1.5 1.5h-1.4c-0.8 0-1.4-0.7-1.4-1.5-0.8 0-1.5-0.6-1.5-1.5v-1.5c0-0.8 0.7-1.5 1.5-1.5 0-0.8 0.6-1.4 1.4-1.4h1.4c0.8 0 1.5 0.6 1.5 1.4 0.8 0 1.4 0.7 1.4 1.5v1.5c0 0.9-0.6 1.5-1.4 1.5zm-0.7-3h-0.8v-0.7c0-0.4-0.3-0.8-0.7-0.8-0.4 0-0.7 0.4-0.7 0.8v0.7h-0.7c-0.4 0-0.7 0.4-0.7 0.8 0 0.4 0.3 0.7 0.7 0.7h0.7v0.8c0 0.4 0.3 0.7 0.7 0.7 0.4 0 0.7-0.3 0.7-0.7v-0.8h0.8c0.4 0 0.7-0.3 0.7-0.7 0-0.4-0.3-0.8-0.7-0.8z"/>
</svg>