<svg version="1.2" xmlns="http://www.w3.org/2000/svg" viewBox="0 0 41 43" width="41" height="43">
	<title>Gift</title>
	<defs>
		<linearGradient id="g1" x1="8.4" y1="32.8" x2="32.6" y2="10.2" gradientUnits="userSpaceOnUse">
			<stop offset="0" stop-color="#6af3f9"/>
			<stop offset="1" stop-color="#2eafeb"/>
		</linearGradient>
	</defs>
	<style>
		.s0 { fill: url(#g1) } 
	</style>
	<path id="Gift" class="s0" d="m38.3 25.5v14.8c0 1.5-1.3 2.7-2.8 2.7h-30c-1.5 0-2.8-1.2-2.8-2.7v-14.8c-1.5 0-2.7-1.2-2.7-2.6v-6.8c0-1.4 1.2-2.6 2.7-2.6h12.9c-2.5-0.2-4.9-1-6.9-2.4q0.1 0 0.1 0c-1.7-1-3-2.6-3.5-4.7q-0.2-0.7-0.2-1.3 0-0.4 0-0.8 0 0 0 0 0-0.3 0.1-0.6 0.1-0.7 0.4-1.4 0.4-0.5 0.9-0.8c0.6-0.6 1.3-1 2.1-1.2q0.1 0 0.3 0 0.2-0.1 0.4-0.1c2.6-0.6 5.2 0.3 7 2.1q0 0 0 0c1.8 1.7 3.2 4 3.8 6.6q0 0.3 0.1 0.5h0.6q0.1-0.2 0.1-0.5c0.6-2.6 2-4.9 3.8-6.6q0 0 0 0c1.8-1.8 4.4-2.7 7-2.1q0.2 0 0.4 0.1 0.2 0 0.3 0c0.8 0.2 1.5 0.6 2.1 1.2q0.5 0.3 0.9 0.8 0.3 0.7 0.4 1.4 0.1 0.3 0.1 0.6 0 0 0 0 0 0.4 0 0.8 0 0.6-0.2 1.3c-0.5 2.1-1.8 3.7-3.5 4.7q0 0 0.1 0c-2 1.4-4.4 2.2-6.9 2.4h12.9c1.5 0 2.7 1.2 2.7 2.6v6.8c0 1.4-1.2 2.6-2.7 2.6zm-15.1 14.8h11c0.7 0 1.3-0.6 1.3-1.3v-13.5c0-0.7-0.6-1.3-1.3-1.3h-11zm-6.5-32.1c-0.4-1.5-1.3-2.8-2.4-3.8q0 0 0 0c-1.1-1-2.6-1.6-4.1-1.5q-0.1 0.1-0.2 0.1-0.1 0-0.2 0-0.7 0.1-1.1 0.5-0.3 0.2-0.5 0.4-0.1 0.4-0.1 0.7-0.1 0.2-0.1 0.3 0 0.1 0 0.1 0 0.2 0.1 0.4 0 0.3 0.1 0.7c0.4 1.1 1.3 2.1 2.3 2.7q0 0-0.1 0c1.9 1.3 4.1 1.9 6.3 1.6q0.2 0 0.4-0.1 0-1-0.4-2.1zm1.1 5.2q-0.2 0-0.4 0h0.4zm0 2.8h-13.7c-0.8 0-1.4 0.6-1.4 1.3v4c0 0.8 0.6 1.4 1.4 1.4h13.7zm0 8h-11c-0.7 0-1.3 0.6-1.3 1.4v13.4c0 0.7 0.6 1.3 1.3 1.3h11zm1.3-10.7v28.2h2.8v-28.2zm11.4-4.7q0 0 0 0c1-0.6 1.8-1.5 2.2-2.6q0.1-0.4 0.2-0.8 0-0.2 0-0.4 0 0 0 0 0-0.2 0-0.3-0.1-0.4-0.2-0.8-0.2-0.2-0.5-0.3-0.4-0.5-1.1-0.6-0.1 0-0.1 0-0.1 0-0.2 0c-1.5-0.2-3.1 0.4-4.1 1.5q0 0 0 0c-1.1 1-2 2.3-2.5 3.7q-0.4 1.1-0.4 2.2 0.2 0 0.4 0.1c2.2 0.3 4.5-0.4 6.3-1.7zm-7.3 4.7h0.3q-0.2 0-0.3 0zm15 4c0-0.7-0.6-1.3-1.4-1.3h-13.6v6.7h13.6c0.8 0 1.4-0.6 1.4-1.3z"/>
</svg>