<svg version="1.2" xmlns="http://www.w3.org/2000/svg" viewBox="0 0 32 32" width="32" height="32">
	<title>ResizeDown</title>
	<defs>
		<linearGradient id="g1" x1="6.5" y1="24.9" x2="25.5" y2="7.1" gradientUnits="userSpaceOnUse">
			<stop offset="0" stop-color="#6af3f9"/>
			<stop offset="1" stop-color="#2eafeb"/>
		</linearGradient>
	</defs>
	<style>
		.s0 { fill: url(#g1) } 
	</style>
	<path id="ResizeDown" class="s0" d="m31.5 30.1l-1.4 1.4c-0.8 0.8-2.1 0.8-2.8 0l-5.4-5.4-3.9 3.9c-0.8 0.7-2 0.1-2-1v-11c0-1.1 0.9-2 2-2h11c1.1 0 1.7 1.2 1 2l-3.9 3.9 5.4 5.4c0.8 0.7 0.8 2 0 2.8zm-1.9-1.9l-6.4-6.4 2.8-2.8c0.5-0.5 0.1-1-0.5-1h-6.5c-0.6 0-1 0.4-1 1v6.5c0 0.6 0.4 1.1 1 0.5l2.8-2.8 6.4 6.4c0.4 0.4 1 0.4 1.4 0 0.4-0.4 0.4-1 0-1.4zm-15.6-12.2h-11c-1.1 0-1.8-1.3-1-2l3.9-3.9-5.4-5.4c-0.8-0.7-0.8-2 0-2.8l1.4-1.4c0.8-0.8 2.1-0.8 2.8 0l5.4 5.4 3.9-3.9c0.7-0.8 2-0.1 2 1v11c0 1.1-0.9 2-2 2zm0-9.5c0-0.6-0.4-1.1-1-0.5l-2.8 2.8-6.4-6.4c-0.4-0.4-1-0.4-1.4 0-0.4 0.4-0.4 1 0 1.4l6.4 6.4-2.8 2.8c-0.5 0.5-0.1 1 0.5 1h6.5c0.6 0 1-0.4 1-1z"/>
</svg>